<svg xmlns="http://www.w3.org/2000/svg" viewBox="0 0 192 192" role="img" aria-labelledby="title desc">
  <title id="title">Happy Shopper icon</title>
  <desc id="desc">A shopping cart icon on a magenta and gold gradient background.</desc>
  <defs>
    <linearGradient id="bg" x1="0" y1="0" x2="1" y2="1">
      <stop offset="0%" stop-color="#ff12a7"/>
      <stop offset="60%" stop-color="#7c0a7e"/>
      <stop offset="100%" stop-color="#17001f"/>
    </linearGradient>
  </defs>
  <rect width="192" height="192" rx="32" fill="url(#bg)"/>
  <circle cx="54" cy="56" r="16" fill="#f4c542" opacity=".95"/>
  <circle cx="140" cy="138" r="16" fill="#56c06b" opacity=".95"/>
  <path fill="#fff" d="M51 59h18l7.5 38.5h50.8a8 8 0 0 0 7.6-5.5l9-25.4H71.3l-1.7-9H39V48h16.3z"/>
  <path fill="#fff" d="M69.8 125.8a14 14 0 1 0 0-28 14 14 0 0 0 0 28Zm67.2 0a14 14 0 1 0 0-28 14 14 0 0 0 0 28Z" opacity=".9"/>
  <path fill="#f4c542" d="M60 83.8h81.6l-4.8 13.4H63.1z"/>
</svg>
